<svg width="20" height="20" viewBox="0 0 20 20" fill="none" xmlns="http://www.w3.org/2000/svg">
<path d="M10.0001 16.6667C11.7682 16.6667 13.4639 15.9643 14.7141 14.7141C15.9644 13.4638 16.6667 11.7681 16.6667 10C16.6667 8.23191 15.9644 6.53622 14.7141 5.28598C13.4639 4.03573 11.7682 3.33335 10.0001 3.33335C8.23197 3.33335 6.53628 4.03573 5.28604 5.28598C4.03579 6.53622 3.33341 8.23191 3.33341 10C3.33341 11.7681 4.03579 13.4638 5.28604 14.7141C6.53628 15.9643 8.23197 16.6667 10.0001 16.6667ZM10.0001 1.66669C11.0944 1.66669 12.1781 1.88224 13.1891 2.30102C14.2002 2.71981 15.1188 3.33364 15.8926 4.10746C16.6665 4.88129 17.2803 5.79994 17.6991 6.81099C18.1179 7.82204 18.3334 8.90567 18.3334 10C18.3334 12.2102 17.4554 14.3298 15.8926 15.8926C14.3298 17.4554 12.2102 18.3334 10.0001 18.3334C5.39175 18.3334 1.66675 14.5834 1.66675 10C1.66675 7.78988 2.54472 5.67027 4.10752 4.10746C5.67033 2.54466 7.78994 1.66669 10.0001 1.66669ZM10.4167 5.83335V10.2084L14.1667 12.4334L13.5417 13.4584L9.16675 10.8334V5.83335H10.4167Z" fill="black"/>
</svg>
