<svg width="25" height="24" viewBox="0 0 25 24" fill="none" xmlns="http://www.w3.org/2000/svg">
<path fill-rule="evenodd" clip-rule="evenodd" d="M16.7365 3.31702C12.8935 1.7784 8.22964 2.65576 5.51967 5.64336C4.18548 7.11349 3.34847 8.9677 3.12823 10.9415C2.90799 12.9154 3.31553 14.9084 4.29283 16.637C5.27012 18.3655 6.76734 19.7413 8.5713 20.5686C10.3753 21.3958 12.394 21.6324 14.3401 21.2445C18.2557 20.4651 21.1743 16.9214 21.9533 13.0229C22.0926 12.3259 22.7699 11.874 23.4662 12.0133C24.1625 12.1527 24.614 12.8307 24.4748 13.5276C23.5395 18.2084 19.9949 22.743 14.842 23.7687C12.3652 24.2624 9.79607 23.9613 7.50023 22.9085C5.20428 21.8556 3.29873 20.1045 2.0549 17.9046C0.811076 15.7047 0.292388 13.168 0.572691 10.6559C0.852982 8.14382 1.91791 5.78431 3.61585 3.91327M3.61585 3.91327C7.12533 0.0444938 12.9632 -0.965742 17.6915 0.927315C18.3508 1.19127 18.6715 1.94021 18.4078 2.60011C18.1441 3.26 17.3958 3.58098 16.7365 3.31702M24.0857 3.75034C24.6075 4.23241 24.64 5.04658 24.1584 5.56883L13.8727 16.7219C13.6354 16.9793 13.3035 17.1287 12.9536 17.1357C12.6038 17.1427 12.2662 17.0067 12.0188 16.759L7.73309 12.4694C7.23099 11.9668 7.23099 11.152 7.73309 10.6494C8.2352 10.1469 9.04926 10.1469 9.55137 10.6494L12.8909 13.992L22.2689 3.82308C22.7505 3.30083 23.564 3.26826 24.0857 3.75034Z" fill="#B3B3B3"/>
</svg>
